<svg width="17" height="8" viewBox="0 0 17 8" fill="none" xmlns="http://www.w3.org/2000/svg"><path d="M0.892822 4.22878C0.892822 6.98668 2.27359 7.56594 3.69444 7.23077C5.11529 6.8956 7.16276 6.75716 8.49982 6.75716C9.83687 6.75716 11.888 6.8956 13.3052 7.23077C14.726 7.56594 16.1068 6.98668 16.1068 4.22878C16.1068 1.47088 14.726 0.891607 13.3052 1.22678C11.8843 1.56196 9.83687 1.7004 8.49982 1.7004C7.16276 1.7004 5.11164 1.56196 3.69444 1.22678C2.27724 0.891607 0.892822 1.47088 0.892822 4.22878Z" stroke="white" stroke-width="0.833333" stroke-miterlimit="10"/><path d="M11.5675 2.85901H5.42868C4.67214 2.85901 4.05884 3.47231 4.05884 4.22885C4.05884 4.98539 4.67214 5.59869 5.42868 5.59869H11.5675C12.324 5.59869 12.9373 4.98539 12.9373 4.22885C12.9373 3.47231 12.324 2.85901 11.5675 2.85901Z" stroke="white" stroke-width="0.833333" stroke-miterlimit="10"/></svg>