<svg width="28" height="13" viewBox="0 0 28 13" fill="none" xmlns="http://www.w3.org/2000/svg"><path d="M1.18823 6.38525C1.18823 11.0301 3.51374 12.0057 5.90675 11.4412C8.29975 10.8767 11.7481 10.6436 14 10.6436C16.2519 10.6436 19.7064 10.8767 22.0933 11.4412C24.4863 12.0057 26.8118 11.0301 26.8118 6.38525C26.8118 1.74036 24.4863 0.764754 22.0933 1.32926C19.7003 1.89376 16.2519 2.12693 14 2.12693C11.7481 2.12693 8.29362 1.89376 5.90675 1.32926C3.51988 0.764754 1.18823 1.74036 1.18823 6.38525Z" fill="#343131" stroke="#343131" stroke-width="1.125" stroke-miterlimit="10"/><path d="M19.1666 4.07825H8.82761C7.55343 4.07825 6.52051 5.11117 6.52051 6.38535C6.52051 7.65953 7.55343 8.69245 8.82761 8.69245H19.1666C20.4408 8.69245 21.4737 7.65953 21.4737 6.38535C21.4737 5.11117 20.4408 4.07825 19.1666 4.07825Z" fill="#F7F7F7" stroke="#F7F7F7" stroke-width="0.1" stroke-miterlimit="10"/></svg>