<svg width="28" height="19" viewBox="0 0 28 19" fill="none" xmlns="http://www.w3.org/2000/svg"><path d="M1.15283 9.413C1.15283 10.5136 1.37942 12.9867 2.89436 14.0743C4.40929 15.162 7.84054 14.5599 9.14183 14.4045C10.4431 14.2491 10.2942 15.5245 10.4755 16.4503C10.6568 17.3761 11.4919 17.6739 11.8998 17.6739H13.9974C13.9974 17.6739 15.6871 17.6739 16.095 17.6739C16.5028 17.6739 17.338 17.3826 17.5193 16.4503C17.7005 15.518 17.5516 14.2427 18.8529 14.4045C20.1542 14.5664 23.579 15.162 25.1004 14.0743C26.6218 12.9867 26.8419 10.5136 26.8419 9.413C26.8419 8.31241 26.6153 5.83932 25.1004 4.75168C23.5855 3.66404 20.1542 4.26612 18.8529 4.4215C17.5516 4.57688 17.7005 3.30149 17.5193 2.3757C17.338 1.44991 16.5028 1.1521 16.095 1.1521H13.9974C13.9974 1.1521 12.3076 1.1521 11.8998 1.1521C11.4919 1.1521 10.6568 1.44343 10.4755 2.3757C10.2942 3.30796 10.4431 4.58335 9.14183 4.4215C7.84054 4.25965 4.41576 3.66404 2.89436 4.75168C1.37295 5.83932 1.15283 8.31241 1.15283 9.413Z" fill="currentColor" stroke="#343131" stroke-width="0.75" stroke-miterlimit="10"/><path d="M18.374 7.20532H9.62757C8.51201 7.20532 7.60767 8.10967 7.60767 9.22523V9.59425C7.60767 10.7098 8.51201 11.6142 9.62757 11.6142H18.374C19.4896 11.6142 20.3939 10.7098 20.3939 9.59425V9.22523C20.3939 8.10967 19.4896 7.20532 18.374 7.20532Z" fill="#F7F7F7" stroke="#F7F7F7" stroke-width="0.1" stroke-miterlimit="10"/></svg>