<svg width="19" height="18" viewBox="0 0 19 18" fill="none" xmlns="http://www.w3.org/2000/svg"><path fill-rule="evenodd" clip-rule="evenodd" d="M13.3284 0.00902227L5.32837 0.00947972C2.56695 0.00963762 0.328497 2.24835 0.328655 5.00977L0.329112 13.0098C0.32927 15.7712 2.56798 18.0096 5.3294 18.0095L13.3294 18.009C16.0908 18.0089 18.3293 15.7701 18.3291 13.0087L18.3287 5.00874C18.3285 2.24732 16.0898 0.00886437 13.3284 0.00902227ZM16.5791 13.0088C16.5737 14.8014 15.1219 16.2534 13.3293 16.259L5.3293 16.2595C3.53665 16.2541 2.0847 14.8023 2.07911 13.0097L2.07866 5.00967C2.08404 3.21702 3.53582 1.76507 5.32847 1.75948L13.3285 1.75902C15.1211 1.76441 16.5731 3.21619 16.5787 5.00884L16.5791 13.0088ZM14.0787 5.25898C14.631 5.25895 15.0786 4.8112 15.0786 4.25892C15.0786 3.70664 14.6309 3.25895 14.0786 3.25898C13.5263 3.25901 13.0786 3.70676 13.0786 4.25904C13.0786 4.81132 13.5264 5.25901 14.0787 5.25898ZM9.32863 4.50925C6.84335 4.50939 4.82874 6.52423 4.82888 9.00951C4.82903 11.4948 6.84386 13.5094 9.32914 13.5093C11.8144 13.5091 13.829 11.4943 13.8289 9.00899C13.8315 7.81469 13.3581 6.66859 12.5136 5.82415C11.6691 4.97971 10.5229 4.50652 9.32863 4.50925ZM6.57888 9.00941C6.57897 10.5282 7.81024 11.7593 9.32904 11.7593C10.8478 11.7592 12.079 10.5279 12.0789 9.00909C12.0788 7.49029 10.8475 6.25916 9.32873 6.25925C7.80993 6.25934 6.5788 7.49061 6.57888 9.00941Z" fill="currentColor" /></svg>