<svg width="19" height="18" viewBox="0 0 19 18" fill="none" xmlns="http://www.w3.org/2000/svg"><path fill-rule="evenodd" clip-rule="evenodd" d="M2.33295 0.00965126L16.3329 0.00885073C17.4375 0.00878757 18.333 0.904166 18.3331 2.00874L18.3339 16.0087C18.3339 17.1133 17.4386 18.0088 16.334 18.0089L2.33398 18.0097C1.22941 18.0097 0.333925 17.1144 0.333862 16.0098L0.333061 2.00977C0.332998 0.905196 1.22838 0.00971442 2.33295 0.00965126ZM5.3338 15.0095C5.60994 15.0095 5.83379 14.7856 5.83378 14.5095L5.83338 7.50945C5.83336 7.23335 5.60949 7.00946 5.33335 7.00948L3.83335 7.00957C3.55721 7.00958 3.33336 7.23349 3.33338 7.50959L3.33378 14.5096C3.33379 14.7857 3.55766 15.0096 3.8338 15.0096L5.3338 15.0095ZM4.58329 6.00952C3.75486 6.00957 3.08325 5.33804 3.0832 4.50961C3.08316 3.68118 3.75469 3.00957 4.58312 3.00952C5.41155 3.00948 6.08316 3.68101 6.0832 4.50944C6.08325 5.33787 5.41172 6.00948 4.58329 6.00952ZM14.8338 15.0089C15.1099 15.0089 15.3338 14.785 15.3338 14.5089L15.3335 9.90891C15.3659 8.31971 14.1909 6.96349 12.6133 6.76906C11.5103 6.66838 10.4417 7.18359 9.83341 8.10922L9.83338 7.50922C9.83336 7.23312 9.60945 7.00924 9.33335 7.00925L7.83335 7.00934C7.55725 7.00935 7.33336 7.23327 7.33338 7.50937L7.33378 14.5094C7.33379 14.7855 7.5577 15.0094 7.8338 15.0093L9.3338 15.0093C9.6099 15.0092 9.83379 14.7853 9.83378 14.5092L9.83356 10.7592C9.83351 9.93082 10.5051 9.25918 11.3335 9.25914C12.1619 9.25909 12.8335 9.93065 12.8336 10.7591L12.8338 14.5091C12.8338 14.7852 13.0577 15.009 13.3338 15.009L14.8338 15.0089Z" fill="white" /></svg>