<svg width="48" height="25" viewBox="0 0 48 25" fill="none" xmlns="http://www.w3.org/2000/svg"><rect y="0.0864258" width="48" height="24" rx="2" fill="#F79E1B"/><path fill-rule="evenodd" clip-rule="evenodd" d="M29.8065 21.0864C34.8839 21.0864 39 17.057 39 12.0864C39 7.11586 34.8839 3.08643 29.8065 3.08643C24.729 3.08643 20.6129 7.11586 20.6129 12.0864C20.6129 17.057 24.729 21.0864 29.8065 21.0864Z" fill="white"/><path fill-rule="evenodd" clip-rule="evenodd" d="M18.1935 21.0864C23.271 21.0864 27.3871 17.057 27.3871 12.0864C27.3871 7.11586 23.271 3.08643 18.1935 3.08643C13.1161 3.08643 9 7.11586 9 12.0864C9 17.057 13.1161 21.0864 18.1935 21.0864Z" fill="#EB001B"/><path fill-rule="evenodd" clip-rule="evenodd" d="M23.9998 5.1084C21.9328 6.75873 20.6129 9.27168 20.6129 12.0864C20.6129 14.9012 21.9328 17.4141 23.9998 19.0644C26.0668 17.4141 27.3867 14.9012 27.3867 12.0864C27.3867 9.27168 26.0668 6.75873 23.9998 5.1084Z" fill="#FF5F00"/></svg>