<svg width="11" height="18" viewBox="0 0 11 18" fill="none" xmlns="http://www.w3.org/2000/svg"><path d="M9.82628 3.00898L6.82628 3.00915C6.27398 3.00918 5.82631 3.45693 5.82634 4.00921L5.82651 7.00921L9.82651 7.00898C9.94021 7.00645 10.0481 7.05937 10.1157 7.15086C10.1833 7.24236 10.2023 7.36096 10.1665 7.46896L9.42666 9.669C9.35848 9.87091 9.16978 10.0074 8.95668 10.009L5.82668 10.0092L5.82711 17.5092C5.82713 17.7853 5.60324 18.0092 5.32714 18.0092L2.82714 18.0094C2.551 18.0094 2.32713 17.7855 2.32711 17.5094L2.32668 10.0094L0.826683 10.0095C0.550543 10.0095 0.32667 9.78562 0.326654 9.50952L0.32654 7.50952C0.326524 7.23342 0.550371 7.00951 0.826511 7.00949L2.32651 7.00941L2.32634 4.00941C2.32621 1.80027 4.11701 0.00930472 6.32611 0.0091784L9.82611 0.00897827C10.1022 0.00896248 10.3261 0.23281 10.3261 0.50895L10.3263 2.50895C10.3263 2.78509 10.1024 3.00896 9.82628 3.00898Z" fill="currentColor" /></svg>