<svg width="19" height="19" viewBox="0 0 19 19" fill="none" xmlns="http://www.w3.org/2000/svg"><path d="M9.82157 0.946167C4.85103 0.946167 0.821411 4.97567 0.821411 9.94622C0.821411 14.917 4.85103 18.9462 9.82157 18.9462C14.7927 18.9462 18.8218 14.917 18.8218 9.94622C18.8218 4.976 14.7927 0.946597 9.82146 0.946597L9.82157 0.946167ZM13.949 13.9268C13.7878 14.1912 13.4417 14.275 13.1773 14.1128C11.0642 12.822 8.404 12.5297 5.27114 13.2454C4.96925 13.3142 4.66832 13.1251 4.59954 12.8231C4.53043 12.5211 4.71883 12.2201 5.02148 12.1514C8.44989 11.3678 11.3907 11.7053 13.7631 13.1552C14.0274 13.3175 14.1113 13.6624 13.949 13.9268ZM15.0506 11.4759C14.8475 11.8064 14.4154 11.9106 14.0855 11.7075C11.6662 10.2202 7.97851 9.78952 5.11702 10.6581C4.74592 10.7702 4.35396 10.5611 4.24133 10.1906C4.12956 9.81951 4.33881 9.42831 4.70927 9.31546C7.97786 8.32369 12.0413 8.8041 14.8195 10.5113C15.1495 10.7144 15.2537 11.1465 15.0506 11.476V11.4759ZM15.1452 8.92404C12.2445 7.20113 7.45866 7.04271 4.68917 7.88327C4.24445 8.01814 3.77414 7.76709 3.63937 7.32236C3.5046 6.87742 3.75544 6.40744 4.20049 6.27224C7.37966 5.30712 12.6647 5.49359 16.0043 7.47616C16.4052 7.71356 16.5363 8.23019 16.2988 8.62967C16.0623 9.02969 15.5443 9.16156 15.1456 8.92404H15.1452Z" fill="white" /></svg>