<svg width="19" height="16" viewBox="0 0 19 16" fill="none" xmlns="http://www.w3.org/2000/svg"><path d="M18.3037 2.72614C17.8393 3.34569 17.2779 3.88613 16.6413 4.3266C16.6413 4.48843 16.6413 4.65026 16.6413 4.82108C16.6466 7.75993 15.4728 10.578 13.3832 12.6435C11.2936 14.709 8.46283 15.8492 5.52568 15.8084C3.82762 15.8142 2.15127 15.4266 0.627982 14.6759C0.54584 14.64 0.492865 14.5588 0.49317 14.4691L0.493164 14.3702C0.493157 14.2411 0.597761 14.1365 0.726801 14.1364C2.39595 14.0812 4.00551 13.5025 5.32778 12.4819C3.81696 12.4515 2.45757 11.5565 1.8319 10.1804C1.80031 10.1053 1.81014 10.019 1.85786 9.95288C1.90558 9.88678 1.98429 9.85037 2.06554 9.85677C2.52471 9.90284 2.98847 9.86012 3.43148 9.73079C1.76365 9.38469 0.51039 8.00016 0.330943 6.30547C0.324568 6.22417 0.360994 6.14547 0.427071 6.09766C0.493138 6.04996 0.579308 6.04005 0.65445 6.07175C1.10202 6.26922 1.58518 6.3732 2.07433 6.37727C0.612872 5.41821 -0.0184622 3.59384 0.537383 1.93598C0.594764 1.77488 0.732627 1.65586 0.900315 1.62267C1.06799 1.58948 1.24078 1.647 1.35514 1.7741C3.32733 3.87285 6.03705 5.1234 8.91292 5.26207C8.83931 4.96813 8.80309 4.66604 8.80507 4.363C8.83188 2.774 9.815 1.35844 11.2942 0.77901C12.7732 0.199596 14.4557 0.57099 15.5538 1.71934C16.3022 1.5767 17.0258 1.32526 17.7015 0.972984C17.751 0.942081 17.8138 0.942078 17.8633 0.972975C17.8942 1.02249 17.8942 1.08528 17.8633 1.1348C17.536 1.8843 16.9832 2.51294 16.2818 2.93305C16.896 2.86178 17.4994 2.71686 18.0791 2.50139C18.1279 2.46817 18.192 2.46817 18.2408 2.50138C18.2817 2.52008 18.3123 2.55585 18.3244 2.59916C18.3365 2.64247 18.3289 2.68892 18.3037 2.72614Z" fill="white" /></svg>