<svg width="48" height="25" viewBox="0 0 48 25" fill="none" xmlns="http://www.w3.org/2000/svg"><rect y="0.0864258" width="48" height="24" rx="2" fill="#1A1F71"/><path fill-rule="evenodd" clip-rule="evenodd" d="M32.1666 7.5344C31.5893 7.31847 30.6847 7.08643 29.5546 7.08643C26.6748 7.08643 24.6456 8.53216 24.6285 10.6028C24.6128 12.1351 26.0767 12.9882 27.1826 13.4989C28.3167 14.0203 28.6985 14.3537 28.6925 14.8199C28.6853 15.5343 27.7871 15.8605 26.9494 15.8605C25.7826 15.8605 25.1632 15.6998 24.2058 15.3019L23.8299 15.1322L23.4209 17.518C24.1024 17.8149 25.3603 18.0733 26.6676 18.0864C29.7316 18.0864 31.7209 16.6577 31.743 14.4458C31.7536 13.2334 30.9776 12.3107 29.2966 11.5509C28.2771 11.0575 27.6534 10.7279 27.6603 10.229C27.6603 9.787 28.1877 9.3123 29.3285 9.3123C30.2829 9.29746 30.9725 9.5049 31.5102 9.72125L31.7719 9.84343L32.1666 7.5344ZM18.6827 17.9282L20.505 7.27226H23.4193L21.596 17.9282H18.6827ZM37.389 7.28268H39.6413L42 17.931H39.2952C39.2952 17.931 39.0283 16.7076 38.9411 16.3347C38.7156 16.3347 37.7742 16.3335 36.8894 16.3324L36.877 16.3323C36.0973 16.3314 35.3644 16.3304 35.2082 16.3304C35.095 16.6185 34.5948 17.931 34.5948 17.931H31.5337L35.8621 8.16633C36.1694 7.47188 36.6909 7.28268 37.389 7.28268ZM36.0464 14.1508C36.2878 13.537 37.2081 11.1715 37.2081 11.1715C37.1996 11.1854 37.2563 11.0387 37.3337 10.8384L37.3337 10.8383C37.4149 10.6282 37.5188 10.3592 37.5942 10.1547L37.7909 11.0735C37.7909 11.0735 38.3494 13.6167 38.4664 14.1508H36.0464ZM13.3849 14.5465L16.2378 7.28001H19.3249L14.7369 17.9152L11.6528 17.9194L9.04419 8.59933C10.8942 9.52243 12.5497 11.3669 13.0805 13.0698L13.3849 14.5465Z" fill="#F0F0F0"/><path fill-rule="evenodd" clip-rule="evenodd" d="M10.7374 7.27307H6.03703L6 7.49451C9.65663 8.37731 12.0762 10.5086 13.0804 13.07L12.0583 8.17242C11.8821 7.49748 11.37 7.2964 10.7374 7.27307Z" fill="#F9A51A"/></svg>